<svg width="18" height="18" viewBox="0 0 18 18" fill="none" xmlns="http://www.w3.org/2000/svg">
<path d="M8.74767 5.77655C7.17283 5.77655 5.88765 7.07526 5.88765 8.66667C5.88765 10.2581 7.17283 11.5568 8.74767 11.5568C10.3225 11.5568 11.6077 10.2581 11.6077 8.66667C11.6077 7.07526 10.3225 5.77655 8.74767 5.77655ZM17.3256 8.66667C17.3256 7.46986 17.3363 6.28389 17.2698 5.08925C17.2033 3.70165 16.89 2.47015 15.8859 1.45546C14.8797 0.438607 13.6631 0.124228 12.29 0.0570163C11.1056 -0.0101958 9.93202 0.000644898 8.74982 0.000644898C7.56547 0.000644898 6.39185 -0.0101958 5.20965 0.0570163C3.8365 0.124228 2.61782 0.440776 1.61371 1.45546C0.607441 2.47231 0.296336 3.70165 0.229823 5.08925C0.163311 6.28606 0.174039 7.47203 0.174039 8.66667C0.174039 9.86131 0.163311 11.0494 0.229823 12.2441C0.296336 13.6317 0.609586 14.8632 1.61371 15.8779C2.61997 16.8947 3.8365 17.2091 5.20965 17.2763C6.394 17.3435 7.56762 17.3327 8.74982 17.3327C9.93416 17.3327 11.1078 17.3435 12.29 17.2763C13.6631 17.2091 14.8818 16.8926 15.8859 15.8779C16.8922 14.861 17.2033 13.6317 17.2698 12.2441C17.3385 11.0494 17.3256 9.86348 17.3256 8.66667ZM8.74767 13.1135C6.31247 13.1135 4.34714 11.1275 4.34714 8.66667C4.34714 6.20584 6.31247 4.21983 8.74767 4.21983C11.1829 4.21983 13.1482 6.20584 13.1482 8.66667C13.1482 11.1275 11.1829 13.1135 8.74767 13.1135ZM13.3284 5.07624C12.7599 5.07624 12.3007 4.61226 12.3007 4.03771C12.3007 3.46315 12.7599 2.99917 13.3284 2.99917C13.897 2.99917 14.3562 3.46315 14.3562 4.03771C14.3563 4.17414 14.3299 4.30926 14.2783 4.43534C14.2267 4.56142 14.151 4.67597 14.0555 4.77244C13.96 4.86891 13.8467 4.94541 13.7219 4.99754C13.5972 5.04967 13.4634 5.07641 13.3284 5.07624Z" fill="#929292"/>
</svg>
