<svg width="15" height="15" viewBox="0 0 15 15" fill="none" xmlns="http://www.w3.org/2000/svg">
<path fill-rule="evenodd" clip-rule="evenodd" d="M7.59911 0.455872C8.56561 0.455872 9.34911 1.23937 9.34911 2.20587V5.94607H13.1487C14.1152 5.94607 14.8987 6.72957 14.8987 7.69607C14.8987 8.66257 14.1152 9.44607 13.1487 9.44607H9.34911V13.1863C9.34911 14.1528 8.56561 14.9363 7.59911 14.9363C6.63261 14.9363 5.84911 14.1528 5.84911 13.1863V9.44607H2.04956C1.08306 9.44607 0.299561 8.66257 0.299561 7.69607C0.299561 6.72957 1.08306 5.94607 2.04956 5.94607H5.84911V2.20587C5.84911 1.23937 6.63261 0.455872 7.59911 0.455872Z" fill="white"/>
</svg>
